<?xml version="1.0" standalone="no"?>
<!DOCTYPE svg PUBLIC "-//W3C//DTD SVG 20010904//EN"
 "http://www.w3.org/TR/2001/REC-SVG-20010904/DTD/svg10.dtd">
<svg version="1.0" xmlns="http://www.w3.org/2000/svg"
 width="507.000000pt" height="507.000000pt" viewBox="0 0 507.000000 507.000000"
 preserveAspectRatio="xMidYMid meet">
<metadata>
Created by potrace 1.14, written by Peter Selinger 2001-2017
</metadata>
<g transform="translate(0.000000,507.000000) scale(0.100000,-0.100000)"
fill="#000000" stroke="none">
<path d="M0 2535 l0 -2535 2535 0 2535 0 0 2535 0 2535 -2535 0 -2535 0 0
-2535z m2747 2103 c-3 -31 -17 -82 -31 -113 -27 -60 -114 -185 -128 -185 -5 0
10 23 33 52 22 28 52 74 65 101 29 56 53 167 47 218 -3 32 -3 33 8 9 6 -14 9
-51 6 -82z m-117 -187 c-29 -42 -36 -39 -8 3 13 19 24 33 26 31 3 -2 -6 -18
-18 -34z m-71 -140 c-44 -33 -66 -41 -186 -60 -130 -21 -138 -23 -237 -46
-117 -28 -235 -74 -375 -146 -149 -76 -166 -77 -26 -1 195 106 376 164 623
202 124 18 182 36 197 60 3 5 11 10 17 10 6 0 0 -8 -13 -19z m367 -46 c-9 -13
-16 -31 -16 -40 0 -8 -5 -15 -11 -15 -5 0 -8 -3 -5 -8 2 -4 1 -37 -4 -72 -9
-76 5 -181 26 -193 8 -4 14 -14 14 -22 0 -26 23 -66 36 -61 7 3 14 -4 17 -17
3 -20 4 -19 16 8 6 17 14 36 17 44 3 11 8 10 19 -5 13 -18 14 -18 25 6 9 21
10 15 6 -35 -3 -56 9 -195 13 -150 l2 20 9 -20 c5 -11 9 -33 10 -50 2 -29 2
-29 9 -5 7 23 9 22 20 -19 l13 -44 20 34 c11 19 27 50 34 69 l14 35 -3 -47
c-2 -37 1 -44 11 -35 11 8 12 5 6 -19 -4 -16 -11 -39 -15 -51 -5 -14 -4 -25 2
-29 6 -3 8 -15 6 -26 -5 -19 -5 -19 15 -1 11 10 24 27 29 38 6 17 8 15 8 -12
1 -17 -3 -43 -9 -57 -17 -46 8 -38 32 10 21 43 23 45 29 23 5 -16 7 -18 8 -6
1 9 5 17 10 17 5 0 12 16 15 35 4 19 12 35 18 35 8 0 9 -30 4 -99 -4 -62 -3
-102 3 -105 6 -4 13 10 17 31 4 21 10 43 14 48 4 6 10 19 13 30 3 11 5 -36 4
-104 0 -87 3 -126 11 -129 8 -2 10 -17 5 -44 -4 -30 -3 -39 5 -34 8 5 12 -2
12 -21 0 -15 5 -35 11 -43 10 -13 10 -13 6 1 -3 8 1 37 8 65 8 27 14 40 14 29
1 -11 5 -27 11 -35 7 -11 11 -9 19 13 17 43 23 32 16 -28 -9 -65 2 -137 16
-114 5 8 9 27 9 42 0 38 16 26 24 -18 4 -19 10 -35 14 -35 4 0 9 -12 10 -26 6
-77 42 -141 42 -76 0 15 9 61 19 102 l19 75 1 -112 c1 -113 15 -177 58 -258
l16 -30 -34 31 c-19 17 -63 51 -98 75 -35 24 -73 51 -85 59 -94 65 -305 217
-323 232 l-21 20 20 34 c11 19 24 34 28 34 10 0 56 88 49 94 -4 5 -88 8 -152
7 l-37 -1 5 -45 c3 -25 2 -45 -2 -45 -7 0 -505 368 -523 386 -2 3 3 2 13 -2
10 -3 17 -1 17 5 0 22 17 10 31 -21 26 -58 38 -46 34 34 -2 40 -1 67 2 61 8
-22 21 -14 32 20 10 26 14 29 22 17 12 -19 1 36 -13 63 -19 37 -1 26 23 -14
13 -22 30 -47 37 -54 7 -8 15 -28 18 -45 4 -17 9 -29 11 -26 2 2 -3 44 -13 92
-21 115 -15 272 15 364 18 57 94 190 108 190 3 0 -2 -11 -11 -25z m-133 -132
c-18 -2 -48 -2 -65 0 -18 2 -4 4 32 4 36 0 50 -2 33 -4z m-273 -14 c-390 -23
-713 -159 -1042 -437 l-63 -54 70 66 c208 198 543 366 815 410 135 22 145 23
250 23 93 0 93 0 -30 -8z m-915 -145 c-26 -20 -55 -36 -55 -30 0 5 63 46 70
46 3 -1 -4 -8 -15 -16z m-65 -38 c0 -3 -15 -14 -32 -26 l-33 -22 30 26 c31 27
35 29 35 22z m963 -3 c-13 -2 -35 -2 -50 0 -16 2 -5 4 22 4 28 0 40 -2 28 -4z
m-95 -10 c-10 -2 -26 -2 -35 0 -10 3 -2 5 17 5 19 0 27 -2 18 -5z m-133 -23
c-278 -63 -555 -226 -772 -453 -35 -36 -63 -58 -63 -50 0 16 23 39 146 147
154 135 318 239 476 302 76 31 233 73 268 73 14 -1 -11 -9 -55 -19z m-805 -13
c0 -2 -10 -12 -22 -23 l-23 -19 19 23 c18 21 26 27 26 19z m-60 -50 c0 -2 -10
-12 -22 -23 l-23 -19 19 23 c18 21 26 27 26 19z m1740 -17 c0 -5 -7 -10 -16
-10 -8 0 -12 5 -9 10 3 6 10 10 16 10 5 0 9 -4 9 -10z m-649 -73 c-8 -8 -11
-7 -11 4 0 20 13 34 18 19 3 -7 -1 -17 -7 -23z m59 -97 c0 -12 -7 -20 -17 -20
-17 0 -103 -62 -428 -302 l-120 -89 -5 107 c-4 93 -7 105 -19 91 -21 -26 -31
-20 -30 16 0 27 2 29 9 12 7 -17 9 -17 9 -2 1 19 20 24 22 5 1 -7 4 -2 8 12 4
14 14 25 24 25 10 0 22 7 27 15 6 8 10 10 10 3 0 -6 9 -9 20 -6 11 3 27 0 34
-7 12 -9 18 -6 31 19 8 17 18 31 21 31 3 0 2 -4 -1 -10 -3 -5 -1 -10 4 -10 6
0 11 7 11 15 0 8 6 15 13 15 21 0 38 45 24 60 -9 10 -9 11 3 4 8 -5 23 -7 33
-6 15 3 17 -5 17 -58 0 -72 11 -71 46 4 22 47 24 49 24 21 0 -37 14 -62 25
-46 5 9 10 9 20 1 10 -8 15 -8 21 1 4 8 3 9 -4 5 -16 -9 -16 16 0 32 9 9 14 7
25 -6 12 -16 13 -16 7 1 -3 9 -1 17 5 17 6 0 11 9 11 20 0 11 7 20 15 20 8 0
15 -4 15 -9 0 -6 8 -8 19 -6 24 4 61 27 61 37 0 5 2 8 5 8 3 0 5 -9 5 -20z
m-560 -40 c0 -11 -4 -20 -10 -20 -5 0 -10 9 -10 20 0 11 5 20 10 20 6 0 10 -9
10 -20z m-620 -33 c0 -2 -12 -14 -27 -28 l-28 -24 24 28 c23 25 31 32 31 24z
m505 -27 c3 -5 1 -10 -4 -10 -6 0 -11 5 -11 10 0 6 2 10 4 10 3 0 8 -4 11 -10z
m-52 -7 c-7 -2 -21 -2 -30 0 -10 3 -4 5 12 5 17 0 24 -2 18 -5z m-83 -335 l0
-173 -180 -129 c-206 -148 -228 -169 -240 -222 -9 -41 5 -124 21 -124 5 0 9
-7 9 -15 0 -18 17 -20 23 -2 8 23 12 -48 6 -108 -3 -33 -6 -50 -7 -38 -1 13
-11 46 -22 74 -10 29 -16 57 -13 63 3 6 2 7 -2 3 -13 -12 -35 71 -35 133 0 30
5 75 11 99 5 24 14 87 19 139 7 76 15 108 41 159 41 81 67 103 34 29 -31 -70
-49 -181 -33 -209 8 -16 12 -17 19 -6 5 8 9 24 9 36 0 33 19 38 26 6 9 -44 12
-50 13 -25 1 12 5 22 10 22 9 0 38 116 43 175 3 34 24 40 49 13 14 -15 19 -10
64 75 51 97 80 136 88 114 4 -14 37 45 37 68 0 8 2 15 5 15 3 0 5 -78 5 -172z
m1807 40 c-3 -8 -6 -5 -6 6 -1 11 2 17 5 13 3 -3 4 -12 1 -19z m-925 -117 c40
-27 100 -78 133 -113 l60 -62 -70 66 c-92 86 -191 150 -219 142 -37 -12 -140
-87 -197 -144 -55 -55 -99 -126 -113 -184 -10 -41 4 -133 23 -158 15 -18 20
-19 40 -8 19 10 22 9 18 -2 -2 -7 -10 -12 -17 -10 -11 2 -11 0 -1 -11 6 -8 8
-17 4 -19 -4 -3 -2 -3 5 -2 6 2 12 -1 12 -6 0 -6 6 -10 13 -10 16 0 40 -38 32
-50 -7 -11 35 -31 48 -23 4 2 7 -1 7 -6 0 -6 -10 -11 -22 -12 -22 0 -22 -1 -3
-9 11 -5 16 -9 11 -9 -5 -1 -2 -9 5 -18 8 -9 9 -14 3 -10 -6 3 -11 -1 -11 -9
0 -8 6 -13 14 -10 10 4 9 0 -2 -18 -14 -21 -14 -24 0 -30 9 -3 13 -10 10 -16
-4 -6 -10 -8 -15 -5 -4 3 -6 -3 -3 -13 2 -10 14 -24 25 -31 18 -11 20 -11 15
3 -7 18 -6 19 17 10 15 -6 15 -8 -1 -20 -10 -7 -27 -14 -39 -14 -11 0 -23 -3
-27 -6 -9 -10 4 -34 19 -34 8 0 14 -5 14 -11 0 -7 -11 -4 -26 6 -15 9 -23 12
-20 6 4 -6 1 -11 -7 -11 -19 0 -28 -36 -13 -50 7 -5 15 -8 17 -5 3 2 5 -5 6
-15 1 -11 -2 -20 -8 -20 -5 0 -9 7 -9 15 0 8 -9 15 -20 15 -25 0 -26 -17 -2
-24 10 -3 8 -4 -7 -3 -16 1 -25 -4 -27 -16 -1 -10 -18 -37 -37 -60 -41 -51
-70 -130 -54 -146 8 -8 8 -11 -1 -11 -7 0 -12 -8 -12 -18 0 -30 45 -133 55
-125 4 5 5 2 1 -5 -10 -16 3 -92 15 -92 5 0 9 14 9 31 0 20 -4 28 -12 23 -8
-5 -9 -2 -3 12 4 10 16 47 26 82 10 34 27 75 38 90 22 29 109 115 97 95 -13
-23 9 -14 42 17 18 17 37 30 42 30 7 0 7 8 1 39 -1 2 -8 -2 -16 -9 -8 -7 -15
-9 -15 -6 0 12 43 66 53 66 4 0 1 -7 -7 -16 -20 -20 -20 -34 0 -34 9 0 12 -5
8 -12 -5 -7 -3 -8 5 -3 7 4 10 16 8 27 -5 16 -2 19 14 15 10 -3 17 -1 14 3 -3
5 -1 11 5 15 10 6 15 -9 10 -30 -1 -5 2 -6 7 -2 4 5 9 12 9 15 1 4 5 17 9 30
7 21 8 21 21 5 13 -16 13 -15 5 9 -8 20 -6 28 4 32 9 3 12 -1 10 -14 -2 -10 3
-21 11 -24 7 -3 13 -2 11 3 -1 4 13 20 31 35 17 15 30 32 27 36 -3 5 3 15 13
22 11 7 21 18 22 23 14 50 22 63 41 58 19 -5 23 -15 20 -42 -2 -7 2 -10 9 -6
9 6 9 2 1 -13 -6 -11 -11 -28 -11 -38 0 -31 27 4 41 53 7 26 14 42 16 36 6
-16 -43 -139 -83 -211 -20 -35 -72 -109 -116 -163 -44 -55 -89 -122 -99 -150
-24 -63 -25 -144 0 -191 18 -36 18 -37 0 -35 -27 2 -54 79 -54 155 0 34 -1 62
-2 62 -6 0 -58 -98 -74 -141 -16 -42 -17 -54 -7 -67 11 -13 11 -14 0 -8 -11 6
-13 0 -12 -25 3 -51 2 -54 -20 -34 -20 18 -20 17 -20 -11 0 -82 50 -212 106
-275 21 -24 28 -35 15 -24 -45 37 -80 80 -117 142 -20 35 -40 60 -45 57 -5 -3
-9 2 -9 10 0 8 -5 18 -11 22 -9 5 -10 -4 -5 -32 l6 -39 -13 30 c-15 33 -44 61
-53 52 -4 -3 -10 -21 -14 -39 l-8 -33 -1 32 c-1 17 -4 39 -7 48 -10 24 -23 -1
-25 -45 -1 -32 -3 -29 -20 28 -11 34 -23 62 -27 62 -5 0 -13 -12 -20 -27 -10
-26 -11 -24 -8 23 2 31 -1 51 -8 52 -6 0 -132 5 -281 10 -156 6 -283 15 -300
22 -51 19 -104 61 -140 110 -35 47 -109 189 -103 195 2 2 23 -35 48 -83 55
-108 134 -192 200 -211 48 -15 350 -26 350 -13 0 4 25 6 56 5 44 -1 53 1 45
11 -15 18 -3 27 28 21 17 -4 11 2 -16 14 -43 20 -163 98 -163 106 0 6 31 -6
56 -22 11 -7 24 -11 27 -8 4 3 5 2 2 -2 -8 -10 83 -51 148 -64 35 -8 57 -18
57 -27 0 -23 17 -4 23 25 4 18 -5 54 -25 103 -40 96 -41 159 -4 255 21 53 25
78 20 105 -8 40 -6 64 7 68 5 2 9 10 9 18 0 8 7 17 15 20 17 7 21 34 5 34 -5
0 -10 5 -10 10 0 6 7 10 15 10 8 0 22 15 32 33 24 44 22 151 -6 251 -29 108
-29 225 1 303 16 45 38 75 97 134 73 73 190 159 217 159 7 0 45 -22 86 -49z
m341 -107 c3 -3 3 -12 0 -20 -6 -16 -33 -19 -33 -4 0 6 8 10 18 10 14 0 15 2
2 10 -8 5 -10 10 -4 10 6 0 13 -3 17 -6z m-21 -53 c22 11 22 10 6 -6 -14 -15
-20 -16 -32 -5 -9 7 -16 20 -15 29 0 11 3 8 9 -7 9 -20 13 -21 32 -11z m-1562
-243 c0 -7 -5 -20 -10 -28 -8 -12 -10 -9 -10 13 0 15 5 27 10 27 6 0 10 -6 10
-12z m80 -92 c10 -29 25 -146 17 -146 -2 0 -16 24 -30 53 -13 29 -32 59 -41
66 -16 13 -15 57 1 84 7 11 41 -26 53 -57z m2213 -1 c-5 -16 -16 -19 -26 -9
-7 8 16 33 25 28 4 -3 5 -11 1 -19z m-1350 1 c4 -10 1 -13 -9 -9 -15 6 -19 23
-5 23 5 0 11 -7 14 -14z m1428 -69 c-8 -8 -11 -7 -11 4 0 20 13 34 18 19 3 -7
-1 -17 -7 -23z m-14 -39 c-3 -8 -6 -5 -6 6 -1 11 2 17 5 13 3 -3 4 -12 1 -19z
m-17 -65 c0 -19 -3 -24 -10 -17 -6 6 -8 18 -4 27 9 24 14 21 14 -10z m-1790
-81 l0 -79 -29 5 c-28 4 -28 5 -24 60 3 32 9 59 15 61 5 1 14 9 21 17 7 7 13
13 15 14 1 0 2 -35 2 -78z m100 -14 l0 -58 -35 0 c-32 0 -35 3 -35 29 0 57 12
91 31 91 11 0 19 6 19 13 0 8 4 7 10 -3 5 -8 10 -41 10 -72z m397 41 c8 -3 7
-10 -4 -24 -12 -16 -14 -16 -10 -3 3 10 2 20 -3 23 -6 4 -10 12 -10 18 0 8 2
9 8 1 4 -6 12 -13 19 -15z m673 -17 c0 -14 2 -15 10 -2 7 11 10 2 10 -32 l0
-48 -35 0 -35 0 0 48 c0 44 2 48 25 50 18 1 25 -3 25 -16z m79 0 c8 -2 18 3
22 10 5 8 9 -8 9 -39 0 -52 0 -53 -30 -53 -30 0 -30 1 -30 53 0 28 4 48 8 42
4 -5 13 -11 21 -13z m-1832 -54 c-3 -8 -6 -5 -6 6 -1 11 2 17 5 13 3 -3 4 -12
1 -19z m1213 -76 c0 -5 -7 -17 -16 -28 -14 -17 -15 -17 -10 -1 3 10 6 23 6 28
0 5 5 9 10 9 6 0 10 -4 10 -8z m-181 -16 c10 -12 8 -13 -8 -9 -12 3 -21 9 -21
14 0 14 16 11 29 -5z m161 -46 c0 -5 -4 -10 -10 -10 -5 0 -10 5 -10 10 0 6 5
10 10 10 6 0 10 -4 10 -10z m-225 -60 c3 -5 1 -10 -4 -10 -6 0 -11 5 -11 10 0
6 2 10 4 10 3 0 8 -4 11 -10z m145 -54 c0 -3 -4 -8 -10 -11 -5 -3 -10 -1 -10
4 0 6 5 11 10 11 6 0 10 -2 10 -4z m-1193 -58 c-3 -8 -6 -5 -6 6 -1 11 2 17 5
13 3 -3 4 -12 1 -19z m27 -68 c5 -17 4 -20 -2 -10 -5 8 -13 26 -16 40 -5 17
-4 20 2 10 5 -8 13 -26 16 -40z m966 -50 c0 -5 -7 -10 -15 -10 -8 0 -15 5 -15
10 0 6 7 10 15 10 8 0 15 -4 15 -10z m-1071 -127 c17 -35 29 -63 26 -63 -5 0
-65 116 -65 126 0 12 6 2 39 -63z m486 38 c3 -5 1 -12 -5 -16 -5 -3 -10 1 -10
9 0 18 6 21 15 7z m1705 -96 c0 -8 -2 -15 -4 -15 -2 0 -6 7 -10 15 -3 8 -1 15
4 15 6 0 10 -7 10 -15z m-2092 -109 c38 -53 39 -56 8 -21 -19 22 -44 58 -56
80 -11 22 -15 32 -8 21 7 -10 32 -46 56 -80z m441 50 c-14 -15 -22 0 -13 26 7
22 7 22 14 3 4 -11 4 -24 -1 -29z m-124 14 c-3 -5 -11 -10 -16 -10 -6 0 -7 5
-4 10 3 6 11 10 16 10 6 0 7 -4 4 -10z m63 -19 c3 -8 -1 -12 -9 -9 -7 2 -15
10 -17 17 -3 8 1 12 9 9 7 -2 15 -10 17 -17z m312 -22 c0 -5 -4 -9 -8 -9 -5 0
-9 7 -9 15 0 8 4 12 9 9 4 -3 8 -9 8 -15z m-708 -104 c222 -319 560 -548 923
-625 146 -31 377 -38 520 -15 205 32 379 88 578 185 45 23 73 33 62 25 -40
-33 -263 -134 -360 -164 -344 -105 -691 -98 -1002 19 -125 47 -272 127 -382
207 -131 96 -306 289 -396 438 -31 50 -1 15 57 -70z m2072 86 c7 -10 -497 -10
-514 0 -9 6 82 9 248 8 144 -1 264 -4 266 -8z m115 5 c-2 -2 -24 -6 -48 -9
-29 -4 -40 -2 -30 4 13 8 88 14 78 5z m-711 -13 c-21 -2 -55 -2 -75 0 -21 2
-4 4 37 4 41 0 58 -2 38 -4z m-691 -39 c-3 -3 -12 -4 -19 -1 -8 3 -5 6 6 6 11
1 17 -2 13 -5z m60 0 c-3 -3 -12 -4 -19 -1 -8 3 -5 6 6 6 11 1 17 -2 13 -5z
m-762 -44 c10 -11 16 -20 13 -20 -3 0 -13 9 -23 20 -10 11 -16 20 -13 20 3 0
13 -9 23 -20z m270 -40 c21 -22 37 -40 34 -40 -3 0 -23 18 -44 40 -21 22 -37
40 -34 40 3 0 23 -18 44 -40z m-175 -65 c35 -36 62 -65 59 -65 -2 0 -34 29
-69 65 -35 36 -62 65 -59 65 2 0 34 -29 69 -65z m480 -144 c201 -104 376 -144
635 -145 105 0 143 -3 110 -7 -166 -24 -400 4 -577 67 -131 47 -318 151 -393
218 -26 24 -10 15 45 -23 47 -33 128 -82 180 -110z m-259 -38 c13 -16 12 -17
-3 -4 -17 13 -22 21 -14 21 2 0 10 -8 17 -17z m1359 -23 c-8 -5 -19 -10 -25
-10 -5 0 -3 5 5 10 8 5 20 10 25 10 6 0 3 -5 -5 -10z m-80 -30 c-8 -5 -22 -9
-30 -9 -10 0 -8 3 5 9 27 12 43 12 25 0z m530 6 c0 -2 -8 -10 -17 -17 -16 -13
-17 -12 -4 4 13 16 21 21 21 13z m-583 -22 c-3 -3 -12 -4 -19 -1 -8 3 -5 6 6
6 11 1 17 -2 13 -5z m543 -8 c0 -3 -15 -14 -32 -26 l-33 -22 30 26 c31 27 35
29 35 22z m-617 -13 c-7 -2 -19 -2 -25 0 -7 3 -2 5 12 5 14 0 19 -2 13 -5z
m-50 -10 c-7 -2 -21 -2 -30 0 -10 3 -4 5 12 5 17 0 24 -2 18 -5z"/>
<path d="M2791 3654 c0 -11 3 -14 6 -6 3 7 2 16 -1 19 -3 4 -6 -2 -5 -13z"/>
<path d="M2635 3590 c3 -5 8 -10 11 -10 2 0 4 5 4 10 0 6 -5 10 -11 10 -5 0
-7 -4 -4 -10z"/>
<path d="M2358 2343 c7 -3 16 -2 19 1 4 3 -2 6 -13 5 -11 0 -14 -3 -6 -6z"/>
<path d="M2471 2020 c-12 -11 -28 -17 -34 -13 -7 4 -8 0 -4 -11 5 -13 3 -17
-7 -13 -19 7 -40 -18 -32 -38 3 -8 1 -15 -3 -15 -5 0 -7 -10 -4 -22 4 -19 3
-20 -6 -8 -6 8 -8 23 -5 33 9 28 -6 20 -17 -10 -5 -15 -7 -38 -4 -51 6 -23 7
-24 25 -7 11 10 20 23 20 30 0 17 55 66 65 58 4 -5 2 2 -5 13 -12 20 -10 25
16 48 34 30 30 35 -5 6z m-48 -70 c-7 -27 -13 -25 -11 4 1 14 5 23 9 20 4 -2
5 -13 2 -24z"/>
<path d="M2078 1643 c7 -3 16 -2 19 1 4 3 -2 6 -13 5 -11 0 -14 -3 -6 -6z"/>
</g>
</svg>
